<?xml version="1.0" encoding="UTF-8"?>
<svg xmlns="http://www.w3.org/2000/svg" id="Layer_1" data-name="Layer 1" viewBox="0 0 24 24" fill="#F59E0B">
  <path d="M22.263,8.072c-.077-.021-1.187-.317-3.321-.562v-1.888c0-.553-.448-1-1-1s-1,.447-1,1v1.703c-.683-.049-1.432-.089-2.246-.115l-1.496-4.8c-.086-.276-.288-.502-.553-.618-.072-.031-1.785-.77-4.366-.77-2.558,0-4.414,.726-4.492,.756-.381,.151-.631,.52-.631,.93v5.311c-.401,.083-.626,.14-.662,.15-.441,.114-.749,.512-.749,.968,0,.691,.011,1.354,.031,1.989,.018,.552,.444,.996,1.032,.967,.552-.018,.985-.479,.967-1.031-.012-.363-.02-.736-.025-1.119,1.359-.267,4.491-.764,8.895-.764,4.063,0,6.796,.379,8.134,.623-.628,2.558-1.102,4.473-1.618,6.214-.529-.245-1.179-.369-1.949-.369-2.437,0-3.672,1.233-3.672,3.665s1.235,3.665,3.672,3.665,3.672-1.233,3.672-3.665c0-.555-.065-1.047-.194-1.477,.723-2.229,1.286-4.523,2.12-7.923l.156-.637c.129-.526-.185-1.061-.708-1.203ZM5.159,3.439c.658-.181,1.78-.417,3.123-.417,1.464,0,2.591,.28,3.157,.459l1.152,3.697c-3.179,.003-5.703,.25-7.432,.497V3.439Zm12.057,17.538c-1.234,0-1.672-.252-1.672-1.665s.438-1.665,1.672-1.665,1.672,.252,1.672,1.665-.438,1.665-1.672,1.665Z"/>
  <path d="M10.575,16.701h-.236c-.072-.471-.198-.888-.377-1.252l.063-.063c.391-.39,.392-1.022,.002-1.414s-1.023-.392-1.414-.002l-.066,.066c-.366-.18-.786-.306-1.26-.378v-.233c0-.553-.448-1-1-1s-1,.447-1,1v.233c-.474,.072-.893,.198-1.26,.378l-.066-.066c-.392-.391-1.025-.391-1.414,.002-.39,.392-.389,1.024,.002,1.414l.063,.063c-.18,.365-.306,.782-.377,1.252h-.236c-.552,0-1,.447-1,1s.448,1,1,1h.236c.072,.471,.198,.888,.377,1.253l-.064,.063c-.391,.39-.392,1.023-.002,1.414,.195,.196,.452,.294,.708,.294s.511-.098,.706-.292l.066-.066c.366,.18,.786,.306,1.259,.378v.232c0,.553,.448,1,1,1s1-.447,1-1v-.232c.473-.071,.893-.198,1.259-.378l.066,.066c.195,.194,.451,.292,.707,.292s.512-.098,.708-.294c.39-.391,.39-1.023,0-1.414l-.064-.064c.18-.365,.306-.782,.377-1.253h.236c.552,0,1-.447,1-1s-.448-1-1-1Zm-4.288,3.115c-1.468,0-2.123-.306-2.123-2.115s.655-2.114,2.123-2.114,2.123,.306,2.123,2.114-.655,2.115-2.123,2.115Z"/>
</svg>
