<?xml version="1.0" encoding="UTF-8"?>
<svg xmlns="http://www.w3.org/2000/svg" id="Layer_1" data-name="Layer 1" viewBox="0 0 24 24" fill="#2c363fff">
  <path d="M18.5,12c-.664,0-1.297,.124-1.887,.341l-1.005-1.7c1.157-1.009,1.892-2.489,1.892-4.141,0-3.033-2.468-5.5-5.5-5.5S6.5,3.467,6.5,6.5c0,1.652,.735,3.132,1.892,4.141l-1.005,1.7c-.59-.216-1.223-.341-1.887-.341-3.032,0-5.5,2.467-5.5,5.5s2.468,5.5,5.5,5.5c2.69,0,4.932-1.944,5.404-4.5h2.191c.472,2.556,2.714,4.5,5.404,4.5,3.032,0,5.5-2.467,5.5-5.5s-2.468-5.5-5.5-5.5Zm.019,2c.828,0,1.5,.672,1.5,1.5s-.672,1.5-1.5,1.5-1.5-.672-1.5-1.5,.672-1.5,1.5-1.5ZM12.019,3c.828,0,1.5,.672,1.5,1.5s-.672,1.5-1.5,1.5-1.5-.672-1.5-1.5,.672-1.5,1.5-1.5Zm-.019,4c1.148,0,2.305,.867,2.467,1.981-.633,.629-1.504,1.019-2.467,1.019s-1.835-.39-2.467-1.019c.162-1.114,1.319-1.981,2.467-1.981Zm-1.887,4.659c.59,.216,1.223,.341,1.887,.341s1.297-.124,1.887-.341l1.005,1.7c-.917,.8-1.567,1.897-1.796,3.141h-2.191c-.23-1.244-.879-2.341-1.796-3.141l1.005-1.7Zm-4.594,2.341c.828,0,1.5,.672,1.5,1.5s-.672,1.5-1.5,1.5-1.5-.672-1.5-1.5,.672-1.5,1.5-1.5Zm-.019,7c-.963,0-1.835-.39-2.467-1.019,.162-1.114,1.319-1.981,2.467-1.981s2.305,.867,2.467,1.981c-.633,.629-1.504,1.019-2.467,1.019Zm13,0c-.963,0-1.835-.39-2.467-1.019,.162-1.114,1.319-1.981,2.467-1.981s2.305,.867,2.467,1.981c-.633,.629-1.504,1.019-2.467,1.019Z"/>
</svg>
